<?xml version="1.0" encoding="UTF-8"?>
<svg id="Layer_2" xmlns="http://www.w3.org/2000/svg" version="1.1" viewBox="0 0 26.6 26.6">
  <!-- Generator: Adobe Illustrator 30.0.0, SVG Export Plug-In . SVG Version: 2.1.1 Build 123)  -->
  <defs>
    <style>
      .st0 {
        opacity: .92;
      }

      .st1 {
        fill: #1b243a;
      }

      .st2 {
        fill: #4a91f6;
      }

      .st3 {
        fill: #fff;
      }

      .st4 {
        fill: #a0a0a0;
      }

      .st5 {
        fill: #5b21b6;
      }

      .st6 {
        fill: #916ed6;
      }
    </style>
  </defs>
  <path class="st5" d="M26.6,5.49v15.62c0,3.03-2.46,5.49-5.49,5.49H5.49c-1.3,0-2.49-.45-3.43-1.2-.07-.05-.14-.11-.2-.17-.12-.11-.23-.22-.34-.34s-.23-.25-.34-.38C.44,23.58,0,22.4,0,21.11V5.49C0,5.2.02,4.91.07,4.63c0-.05,0-.09.02-.14,0-.05.02-.1.04-.15C.65,1.86,2.84,0,5.49,0h15.62C24.14,0,26.6,2.46,26.6,5.49Z"/>
  <g id="BG_shapes">
    <path class="st3" d="M23.28,14.87c0,.4-.01.8-.05,1.2,0,.08-.01.17-.02.25-.05.64-.14,1.27-.28,1.9-.25,1.21-.65,2.4-1.23,3.55,0,.02-.01.05-.03.07-.04.09-.09.19-.14.28l-.02.03-.02.03c-.04.09-.09.19-.14.28-.7,1.42-1.55,2.74-2.67,4.14h-.32l.06-.08c1.14-1.41,2-2.74,2.7-4.17.02-.03.04-.06.05-.09.05-.09.09-.17.13-.26l.03-.05h.01v-.02c.05-.08.1-.17.13-.25.47-.94.83-1.9,1.07-2.89.23-.86.37-1.74.43-2.62.02-.08.02-.17.03-.25.02-.42.03-.83.02-1.24h0c0-1.4-.19-2.79-.51-4.15h0c-.08-.35-.17-.68-.27-1.01,0-.02,0-.03-.02-.05.01-.02,0-.05-.02-.07,0-.03,0-.05-.02-.08-.11-.4-.24-.79-.39-1.18-.39-1.09-.87-2.15-1.42-3.16-.05-.08-.09-.16-.14-.24-.05-.09-.1-.18-.16-.27-.02-.05-.05-.1-.09-.15-.92-1.58-2.02-3.01-3.22-4.23L16.68,0h.34c1.19,1.22,2.27,2.64,3.18,4.2.08.11.14.22.19.33.06.09.11.18.16.28h.01s.02.03.02.05c.6,1.09,1.12,2.24,1.53,3.42.25.71.47,1.43.63,2.17.35,1.45.54,2.93.54,4.42Z"/>
    <path class="st3" d="M11.78,0l-.12.04c-1.93.69-3.93,1.89-5.57,3.31-.04.02-.07.05-.1.08-.1.08-.19.16-.27.24-.07.06-.14.12-.2.19-1.73,1.61-2.96,3.46-3.12,5.13-.02.17-.02.35,0,.52v.13h-.25v-.12c0-.13,0-.27,0-.41.09-1.76,1.37-3.71,3.19-5.41.01-.02.02-.03.04-.04.09-.08.18-.17.27-.24.09-.09.18-.17.28-.25C7.45,1.85,9.28.72,11.07,0h.72-.01Z"/>
    <g class="st0">
      <path class="st3" d="M26.6,19.08v.32c-1.34,1.01-3.08,2.02-4.77,2.64-.1.04-.21.08-.32.11-.11.04-.23.08-.34.11-.03.01-.06.02-.1.03-.61.18-1.2.31-1.76.34-.13.02-.26.02-.39.02-.18,0-.35-.01-.52-.03h-.13v-.13s.03-.13.03-.13h.14c.36.05.77.04,1.21-.01.42-.06.88-.16,1.36-.3.11-.03.22-.06.33-.1.11-.03.22-.07.33-.11.02-.01.04-.02.07-.03,1.55-.56,3.25-1.49,4.79-2.67,0,0,.07-.06.07-.06Z"/>
    </g>
    <path class="st3" d="M26.6,7.49v.34h-.01l-.08-.08c-1.21-1.32-3.42-2.41-5.9-2.93-.02-.01-.04-.01-.06-.01-.1-.03-.21-.05-.32-.07s-.23-.04-.35-.06c-1.83-.3-3.77-.28-5.53.19-.19.04-.38.1-.57.16l-.12.03-.08-.23.12-.04c.09-.03.18-.06.28-.08,1.86-.56,3.94-.59,5.91-.27.06,0,.12.01.18.03.11.01.22.03.32.06.1.01.2.03.29.05,2.47.53,4.67,1.61,5.92,2.91Z"/>
    <path class="st3" d="M11.81,5.49l-.17.18-.09-.08c-.16-.15-.34-.29-.52-.41-1.33-.96-3.13-1.41-4.95-1.5-.12,0-.24,0-.36,0h-.4c-1.96,0-3.87.38-5.18.94l-.07.03s0-.09.02-.14c0-.05.02-.1.04-.15,1.33-.56,3.23-.93,5.17-.93h.34c.12,0,.23,0,.35,0,.03,0,.07,0,.11,0,1.91.1,3.8.58,5.19,1.62.15.11.29.23.43.35,0,0,.09.08.09.08Z"/>
    <path class="st3" d="M20.68,4.59c0,.53-.82.53-.82,0s.82-.53.82,0Z"/>
    <path class="st3" d="M21.83,22.07c0,.53-.82.53-.82,0s.82-.53.82,0Z"/>
    <path class="st3" d="M6.11,3.5c0,.53-.82.53-.82,0s.82-.53.82,0Z"/>
  </g>
  <path class="st5" d="M13.01,5.4L1.79,10.3l4.42,1.84s.52-1.1,5.85-1.79c0,0-4.31,1.15-5.59,2.69v5.84s7.83-6.18,9.78-2.42l3.24-3.69-2.2-1.57,5.17-1.77-9.46-4.04h.01Z"/>
  <path class="st5" d="M17.3,11.21l2.19,1.57-3.24,3.68c-.63-1.2-1.86-1.39-3.24-1.07V5.4l9.46,4.04s-5.17,1.77-5.17,1.77Z"/>
  <path class="st1" d="M13.33,15.18c-.11.02-.21.04-.32.07-1.85.44-3.97,1.74-5.25,2.62.23-.14.5-.29.8-.44.02-.01.04-.02.05-.03.35-.17.74-.35,1.18-.51.14-.05.29-.11.44-.16.22-.08.46-.15.71-.22s.51-.13.78-.18c.22-.05.44-.09.67-.13h.03c.23-.03.46-.06.69-.08.26-.03.52-.05.79-.06,0,0,.13-.14.37-.38l.17-.17c.06-.07.13-.13.2-.21.05-.04.1-.1.16-.15-.45-.1-.95-.08-1.47.03Z"/>
  <polygon class="st4" points="13.19 21.15 20.55 12.71 19.12 11.68 24.43 9.87 23.94 15.39 22.66 14.39 16.27 22.22 13.19 21.15"/>
  <path class="st3" d="M9.97,10.56c-2.78.54-3.76,1.35-3.88,1.45h-.01l-1.43-.59v.07l1.57.65s.05-.1.28-.27c.04-.04.1-.07.16-.11.05-.03.1-.06.16-.1.13-.07.29-.14.47-.22h.01c.11-.05.22-.1.35-.14.03,0,.07-.03.11-.04.03-.01.07-.02.1-.03.08-.02.15-.05.23-.08.09-.03.17-.06.26-.08.16-.05.34-.1.53-.14,0,0,.01,0,.02-.01.19-.05.39-.1.61-.14.02,0,.03,0,.04-.01.11-.03.23-.05.35-.08.03,0,.06-.01.1-.01.02-.01.05-.01.08-.02.13-.03.27-.05.41-.07.11-.02.23-.04.35-.06.04-.01.08-.02.13-.02.08-.01.16-.03.24-.04.09-.01.18-.03.27-.04.04,0,.08-.01.12-.02.13-.01.27-.03.41-.05-.09.03-.3.09-.59.18-.05,0-.1.03-.15.04-.02.01-.04.02-.07.03-.06.02-.12.04-.18.06-.06.01-.12.04-.19.06-.11.03-.24.08-.37.12-.09.03-.18.07-.28.11-.13.04-.26.09-.4.15-.01,0-.02.01-.04.01-.22.09-.44.18-.67.28-.15.06-.3.13-.44.2-.73.33-1.42.73-1.89,1.16-.1.09-.19.18-.27.28l.02,5.84s.12-.1.33-.26c.07-.04.14-.1.23-.16.11-.08.24-.18.39-.28.19-.14.42-.29.66-.45.15-.1.3-.2.46-.3-.3.15-.57.3-.8.44-.13.09-.25.17-.35.24-.11.07-.21.14-.3.21-.18.13-.32.24-.41.31-.05.04-.08.06-.1.08l-.02.02h0v-5.7c1.16-1.39,5.54-2.65,6.26-2.84.03,0,.05-.01.07-.01.02-.02.03-.02.03-.02-1.16.1-2.14.24-2.96.4h-.01ZM9.97,10.56c-2.78.54-3.76,1.35-3.88,1.45h-.01l-1.43-.59v.07l1.57.65s.05-.1.28-.27c.04-.04.1-.07.16-.11.05-.03.1-.06.16-.1.13-.07.29-.14.47-.22h.01c.11-.05.22-.1.35-.14.03,0,.07-.03.11-.04.03-.01.07-.02.1-.03.08-.02.15-.05.23-.08.09-.03.17-.06.26-.08.16-.05.34-.1.53-.14,0,0,.01,0,.02-.01.19-.05.39-.1.61-.14.02,0,.03,0,.04-.01.11-.03.23-.05.35-.08.03,0,.06-.01.1-.01.02-.01.05-.01.08-.02.13-.03.27-.05.41-.07.11-.02.23-.04.35-.06.04-.01.08-.02.13-.02.08-.01.16-.03.24-.04.09-.01.18-.03.27-.04.04,0,.08-.01.12-.02.13-.01.27-.03.41-.05-.09.03-.3.09-.59.18-.05,0-.1.03-.15.04-.02.01-.04.02-.07.03-.06.02-.12.04-.18.06-.06.01-.12.04-.19.06-.11.03-.24.08-.37.12-.09.03-.18.07-.28.11-.13.04-.26.09-.4.15-.01,0-.02.01-.04.01-.22.09-.44.18-.67.28-.15.06-.3.13-.44.2-.73.33-1.42.73-1.89,1.16-.1.09-.19.18-.27.28l.02,5.84s.12-.1.33-.26c.07-.04.14-.1.23-.16.11-.08.24-.18.39-.28.19-.14.42-.29.66-.45.15-.1.3-.2.46-.3-.3.15-.57.3-.8.44-.13.09-.25.17-.35.24-.11.07-.21.14-.3.21-.18.13-.32.24-.41.31-.05.04-.08.06-.1.08l-.02.02h0v-5.7c1.16-1.39,5.54-2.65,6.26-2.84.03,0,.05-.01.07-.01.02-.02.03-.02.03-.02-1.16.1-2.14.24-2.96.4h-.01ZM9.97,10.56c-2.78.54-3.76,1.35-3.88,1.45h-.01l-1.43-.59v.07l1.57.65s.05-.1.28-.27c.04-.04.1-.07.16-.11.05-.03.1-.06.16-.1.13-.07.29-.14.47-.22h.01c.11-.05.22-.1.35-.14.03,0,.07-.03.11-.04.03-.01.07-.02.1-.03.08-.02.15-.05.23-.08.09-.03.17-.06.26-.08.16-.05.34-.1.53-.14,0,0,.01,0,.02-.01.19-.05.39-.1.61-.14.02,0,.03,0,.04-.01.11-.03.23-.05.35-.08.06-.01.12-.02.18-.03.13-.03.27-.05.41-.07.11-.02.23-.04.35-.06.04-.01.08-.02.13-.02.08-.01.16-.03.24-.04.09-.01.18-.03.27-.04.04,0,.08-.01.12-.02.13-.01.27-.03.41-.05-.09.03-.3.09-.59.18-.05,0-.1.03-.15.04-.02.01-.04.02-.07.03-.06.02-.12.04-.18.06-.06.01-.12.04-.19.06-.11.03-.24.08-.37.12-.09.03-.18.07-.28.11-.13.04-.26.09-.4.15-.01,0-.02.01-.04.01-.22.09-.44.18-.67.28-.15.06-.3.13-.44.2-.73.33-1.42.73-1.89,1.16-.1.09-.19.18-.27.28l.02,5.84s.12-.1.33-.26c.07-.04.14-.1.23-.16.11-.08.24-.18.39-.28.19-.14.42-.29.66-.45.15-.1.3-.2.46-.3-.3.15-.57.3-.8.44-.13.09-.25.17-.35.24-.11.07-.21.14-.3.21-.18.13-.32.24-.41.31-.05.04-.08.06-.1.08l-.02.02h0v-5.7c1.16-1.39,5.54-2.65,6.26-2.84.03,0,.05-.01.07-.01.02-.02.03-.02.03-.02-1.16.1-2.14.24-2.96.4h-.01ZM9.97,10.56c-2.78.54-3.76,1.35-3.88,1.45h-.01l-1.43-.59v.07l1.57.65s.05-.1.28-.27c.04-.04.1-.07.16-.11.05-.03.1-.06.16-.1.13-.07.29-.14.47-.22h.01c.11-.05.22-.1.35-.14.03,0,.07-.03.11-.04.03-.01.07-.02.1-.03.08-.02.15-.05.23-.08s.17-.06.26-.08c.16-.05.34-.1.53-.14,0,0,.01,0,.02-.01.19-.05.39-.1.61-.14.02,0,.03,0,.04-.01.11-.03.23-.05.35-.08.06-.01.12-.02.18-.03.13-.02.27-.05.41-.07.11-.02.23-.04.35-.06.04-.01.08-.02.13-.02.08-.01.16-.03.24-.04.09-.01.18-.03.27-.04.04,0,.08-.01.12-.02.13-.01.27-.03.41-.05-.09.03-.3.09-.59.18-.05,0-.1.03-.15.04-.02.01-.04.02-.07.03-.06.02-.12.04-.18.06-.06.01-.12.04-.19.06-.11.03-.24.08-.37.12-.09.03-.18.07-.28.11-.13.04-.26.09-.4.15-.01,0-.02.01-.04.01-.22.09-.44.18-.67.28-.15.06-.3.13-.44.2-.73.33-1.42.73-1.89,1.16-.1.09-.19.18-.27.28l.02,5.84s.12-.1.33-.26c.07-.04.14-.1.23-.16.11-.08.24-.18.39-.28.19-.14.42-.29.66-.45.15-.1.3-.2.46-.3-.3.15-.57.3-.8.44-.13.09-.25.17-.35.24-.11.07-.21.14-.3.21-.18.13-.32.24-.41.31-.05.04-.08.06-.1.08l-.02.02h0v-5.7c1.16-1.39,5.54-2.65,6.26-2.84.03,0,.05-.01.07-.01.02-.02.03-.02.03-.02-1.16.1-2.14.24-2.96.4h-.01ZM23.7,8.98l-1.59-.7-.12-.05-.2-.09-7.44-3.27-.16-.07h-.01l-.2-.09-.96-.42-1.73.77-.16.07-.1.05-8.63,3.81-.11.05-.15.07-1.94.85L0,10.05v.4l2.44,1.09s-1.12,3.72.29,7.11h0c.04.1.08.19.13.28.71,1.55,1.97,2.99,4.14,3.96h.05l.2-.03,8.09-.96h.01l1.31-.16,1.46-.17,4.16-4.87.03-.04.49-.58.16-.19.04.03.09.06.14.09,1.54,1.03.77-8.74s-1.84.62-1.84.62ZM12.99,5.46h.02l9.19,3.94.1.04-.08.03-5.16,1.72.22.16,1.05.75.96.7-2.91,3.36-.08.09-.02.02c-.12-.24-.27-.43-.43-.59h-.01c-.29-.28-.63-.44-1.01-.53h-.03c-.06.05-.11.11-.16.15-.07.08-.14.14-.2.21l-.17.17c-.24.24-.37.38-.37.38-.27.01-.53.03-.79.06-.23.02-.46.05-.69.08h-.03c-.23.04-.45.08-.67.13-.27.05-.53.11-.78.18s-.49.14-.71.22c-.15.05-.3.11-.44.16-.44.16-.83.34-1.18.51-.01.01-.03.02-.05.03-.3.15-.57.3-.8.44-.13.09-.25.17-.35.24-.11.07-.21.14-.3.21-.18.13-.32.24-.41.31-.05.04-.08.06-.1.08l-.02.02h0v-5.7c1.16-1.39,5.54-2.65,6.26-2.84.03,0,.05-.01.07-.01.02-.02.03-.02.03-.02-1.16.1-2.14.24-2.96.4-2.78.54-3.76,1.35-3.88,1.45h-.01l-1.43-.59-.42-.18h-.01l-.35-.15-.42-.18-1.5-.63,11.04-4.82h0ZM9.97,10.56c-2.78.54-3.76,1.35-3.88,1.45h-.01l-1.43-.59v.07l1.57.65s.05-.1.28-.27c.04-.04.1-.07.16-.11.05-.03.1-.06.16-.1.13-.07.29-.14.47-.22h.01c.11-.05.22-.1.35-.14.03,0,.07-.03.11-.04.03-.01.07-.02.1-.03.08-.02.15-.05.23-.08.09-.03.17-.06.26-.08.16-.05.34-.1.53-.14,0,0,.01,0,.02-.01.19-.05.39-.1.61-.14.02,0,.03,0,.04-.01.11-.03.23-.05.35-.08.06-.01.12-.02.18-.03.13-.03.27-.05.41-.07.11-.02.23-.04.35-.06.04-.01.08-.02.13-.02.08-.01.16-.03.24-.04.09-.01.18-.03.27-.04.04,0,.08-.01.12-.02.13-.01.27-.03.41-.05-.09.03-.3.09-.59.18-.05,0-.1.03-.15.04-.02.01-.04.02-.07.03-.06.02-.12.04-.18.06-.06.01-.12.04-.19.06-.11.03-.24.08-.37.12-.09.03-.18.07-.28.11-.13.04-.26.09-.4.15-.01,0-.02.01-.04.01-.22.09-.44.18-.67.28-.15.06-.3.13-.44.2-.73.33-1.42.73-1.89,1.16-.1.09-.19.18-.27.28l.02,5.84s.12-.1.33-.26c.07-.04.14-.1.23-.16.11-.08.24-.18.39-.28.19-.14.42-.29.66-.45.15-.1.3-.2.46-.3-.3.15-.57.3-.8.44-.13.09-.25.17-.35.24-.11.07-.21.14-.3.21-.18.13-.32.24-.41.31-.05.04-.08.06-.1.08l-.02.02h0v-5.7c1.16-1.39,5.54-2.65,6.26-2.84.03,0,.05-.01.07-.01.02-.02.03-.02.03-.02-1.16.1-2.14.24-2.96.4h-.01ZM9.97,10.56c-2.78.54-3.76,1.35-3.88,1.45h-.01l-1.43-.59v.07l1.57.65s.05-.1.28-.27c.04-.04.1-.07.16-.11.05-.03.1-.06.16-.1.13-.07.29-.14.47-.22h.01c.11-.05.22-.1.35-.14.03,0,.07-.03.11-.04.03-.01.07-.02.1-.03.08-.02.15-.05.23-.08.09-.03.17-.06.26-.08.16-.05.34-.1.53-.14,0,0,.01,0,.02-.01.19-.05.39-.1.61-.14.02,0,.03,0,.04-.01.11-.03.23-.05.35-.08.03,0,.06-.01.1-.01.02-.01.05-.01.08-.02.13-.03.27-.05.41-.07.11-.02.23-.04.35-.06.04-.01.08-.02.13-.02.08-.01.16-.03.24-.04.09-.01.18-.03.27-.04.04,0,.08-.01.12-.02.13-.01.27-.03.41-.05-.09.03-.3.09-.59.18-.05,0-.1.03-.15.04-.02.01-.04.02-.07.03-.06.02-.12.04-.18.06-.06.01-.12.04-.19.06-.11.03-.24.08-.37.12-.09.03-.18.07-.28.11-.13.04-.26.09-.4.15-.01,0-.02.01-.04.01-.22.09-.44.18-.67.28-.15.06-.3.13-.44.2-.73.33-1.42.73-1.89,1.16-.1.09-.19.18-.27.28l.02,5.84s.12-.1.33-.26c.07-.04.14-.1.23-.16.11-.08.24-.18.39-.28.19-.14.42-.29.66-.45.15-.1.3-.2.46-.3-.3.15-.57.3-.8.44-.13.09-.25.17-.35.24-.11.07-.21.14-.3.21-.18.13-.32.24-.41.31-.05.04-.08.06-.1.08l-.02.02h0v-5.7c1.16-1.39,5.54-2.65,6.26-2.84.03,0,.05-.01.07-.01.02-.02.03-.02.03-.02-1.16.1-2.14.24-2.96.4h-.01ZM9.97,10.56c-2.78.54-3.76,1.35-3.88,1.45h-.01l-1.43-.59v.07l1.57.65s.05-.1.28-.27c.04-.04.1-.07.16-.11.05-.03.1-.06.16-.1.13-.07.29-.14.47-.22h.01c.11-.05.22-.1.35-.14.03,0,.07-.03.11-.04.03-.01.07-.02.1-.03.08-.02.15-.05.23-.08.09-.03.17-.06.26-.08.16-.05.34-.1.53-.14,0,0,.01,0,.02-.01.19-.05.39-.1.61-.14.02,0,.03,0,.04-.01.11-.03.23-.05.35-.08.03,0,.06-.01.1-.01.02-.01.05-.01.08-.02.13-.03.27-.05.41-.07.11-.02.23-.04.35-.06.04-.01.08-.02.13-.02.08-.01.16-.03.24-.04.09-.01.18-.03.27-.04.04,0,.08-.01.12-.02.13-.01.27-.03.41-.05-.09.03-.3.09-.59.18-.05,0-.1.03-.15.04-.02.01-.04.02-.07.03-.06.02-.12.04-.18.06-.06.01-.12.04-.19.06-.11.03-.24.08-.37.12-.09.03-.18.07-.28.11-.13.04-.26.09-.4.15-.01,0-.02.01-.04.01-.22.09-.44.18-.67.28-.15.06-.3.13-.44.2-.73.33-1.42.73-1.89,1.16-.1.09-.19.18-.27.28l.02,5.84s.12-.1.33-.26c.07-.04.14-.1.23-.16.11-.08.24-.18.39-.28.19-.14.42-.29.66-.45.15-.1.3-.2.46-.3-.3.15-.57.3-.8.44-.13.09-.25.17-.35.24-.11.07-.21.14-.3.21-.18.13-.32.24-.41.31-.05.04-.08.06-.1.08l-.02.02h0v-5.7c1.16-1.39,5.54-2.65,6.26-2.84.03,0,.05-.01.07-.01.02-.02.03-.02.03-.02-1.16.1-2.14.24-2.96.4h-.01ZM9.97,10.56c-2.78.54-3.76,1.35-3.88,1.45h-.01l-1.43-.59-.42-.18v.07l.42.18,1.57.65s.05-.1.28-.27c.04-.04.1-.07.16-.11.05-.03.1-.06.16-.1.13-.07.29-.14.47-.22h.01c.11-.05.22-.1.35-.14.03,0,.07-.03.11-.04.03-.01.07-.02.1-.03.08-.02.15-.05.23-.08.09-.03.17-.06.26-.08.16-.05.34-.1.53-.14,0,0,.01,0,.02-.01.19-.05.39-.1.61-.14.02,0,.03,0,.04-.01.15-.03.29-.06.45-.09.02-.01.05-.01.08-.02.13-.03.27-.05.41-.07.11-.02.23-.04.35-.06.04-.01.08-.02.13-.02.08-.01.16-.03.24-.04.09-.01.18-.03.27-.04.04,0,.08-.01.12-.02.13-.01.27-.03.41-.05-.09.03-.3.09-.59.18-.05,0-.1.03-.15.04-.02.01-.04.02-.07.03-.06.02-.12.04-.18.06-.06.01-.12.04-.19.06-.11.03-.24.08-.37.12-.09.03-.18.07-.28.11-.13.04-.26.09-.4.15-.01,0-.02.01-.04.01-.22.09-.44.18-.67.28-.15.06-.3.13-.44.2-.73.33-1.42.73-1.89,1.16-.1.09-.19.18-.27.28l.02,5.84s.12-.1.33-.26c.07-.04.14-.1.23-.16.11-.08.24-.18.39-.28.19-.14.42-.29.66-.45.15-.1.3-.2.46-.3-.3.15-.57.3-.8.44-.13.09-.25.17-.35.24-.11.07-.21.14-.3.21-.18.13-.32.24-.41.31-.05.04-.08.06-.1.08l-.02.02h0v-5.7c1.16-1.39,5.54-2.65,6.26-2.84.03,0,.05-.01.07-.01.02-.02.03-.02.03-.02-1.16.1-2.14.24-2.96.4h-.01Z"/>
  <polygon class="st5" points="13.19 21.15 20.55 12.71 19.12 11.68 24.43 9.87 23.94 15.39 22.66 14.39 16.27 22.22 13.19 21.15"/>
  <path class="st2" d="M22.87,16.99c-1.79,2.52-3.2,5.11-6.16,6.4-2.31,1-5.04.83-6.26,3.21h-4.96c-1.3,0-2.49-.45-3.43-1.2-.07-.05-.14-.11-.2-.17-.12-.11-.23-.22-.34-.34-.76-.83-1.26-1.9-1.4-3.08l-.04-4.44v-6.67l.04.02,2.15.86c-.71,2.63-.7,4.87.42,7.2,0,.03.02.06.05.09.12.26.26.52.41.78.59.98,2.62,3.26,3.77,3.36.08.01.14-.01.2-.05.05-.02.09-.06.13-.1.33-.35.44-1.26.65-1.64,1.58-2.93,5.28-2.93,7.75-4.82,1.11,1.67-1.66,3.19-2.97,3.8.04.43.29.67.65.79h.01c.77.25,2.02-.04,2.67-.19.72-.17,1.48-.46,2.12-.87.01,0,.02-.01.02-.01.21-.13.4-.28.58-.44.91-.83,2.09-3.18,3.55-2.78.04.01.07.02.11.03.16.05.32.14.48.26Z"/>
  <path class="st3" d="M23.48,17.42c-.26.37-.52.75-.77,1.12-.02.03-.04.05-.05.08,0,0,0,.01-.01.01-.93,1.36-1.89,2.74-3.17,3.87h-.01c-.71.62-1.51,1.17-2.46,1.58-.75.32-1.52.53-2.27.72-1.43.38-2.68.71-3.41,1.8h-5.84c-1.3,0-2.49-.45-3.43-1.2-.07-.05-.14-.11-.2-.17-.12-.11-.23-.22-.34-.34s-.23-.25-.34-.38C.44,23.58,0,22.4,0,21.11v-11.15s.05-.01.08-.01c.04,0,.08,0,.12.01.08.01.15.03.22.07l2.13.85c.35.14.55.53.45.89-.62,2.3-.62,4.11.02,5.87.08.21.17.43.27.64.03.06.05.11.08.17,0,.01.04.07.05.1.09.2.2.4.31.6,0,.01,0,.01,0,.02.02.03.04.07.06.1.62,1.02,2.19,2.61,2.98,2.93.06-.16.13-.4.18-.55.08-.29.16-.57.29-.79,1.09-2.04,3.03-2.8,4.9-3.54,1.12-.44,2.17-.85,3.05-1.52.11-.08.23-.13.36-.14h.01s.05-.01.08-.01c.04,0,.08,0,.13.01h.07c.17.05.32.16.43.31.04.06.07.12.1.18.02.03.04.06.05.09.15.3.23.6.23.92,0,.19-.02.39-.08.59-.3,1.05-1.4,1.93-2.53,2.58h.03c.6,0,1.32-.17,1.75-.27.71-.17,1.38-.44,1.9-.77.02-.02.04-.03.06-.04.16-.1.3-.22.44-.34.2-.18.46-.51.73-.85.64-.8,1.41-1.78,2.39-2.08h.01c.19-.06.38-.09.59-.09.18,0,.36.03.53.07.01.01.13.04.14.04.06.02.12.05.18.07.09.04.18.09.27.14.08.05.17.11.25.17.33.24.4.7.16,1.03h0Z"/>
  <path class="st5" d="M22.87,16.99c-1.79,2.52-3.2,5.11-6.16,6.4-2.31,1-5.04.83-6.26,3.21h-4.96c-1.3,0-2.49-.45-3.43-1.2-.07-.05-.14-.11-.2-.17-.12-.11-.23-.22-.34-.34s-.23-.25-.34-.38C.44,23.58,0,22.4,0,21.11v-10.42l.08.02h.04l2.15.87c-.71,2.63-.7,4.87.42,7.2,0,.03.02.06.05.09.12.26.26.52.41.78.59.98,2.62,3.26,3.77,3.36.08.01.14-.01.2-.05.05-.02.09-.06.13-.1.33-.35.44-1.26.65-1.64,1.58-2.93,5.28-2.93,7.75-4.82,1.11,1.67-1.66,3.19-2.97,3.8.04.43.29.67.65.79h.01c.77.25,2.02-.04,2.67-.19.72-.17,1.48-.46,2.12-.87.01,0,.02-.01.02-.01.21-.13.4-.28.58-.44.91-.83,2.09-3.18,3.55-2.78.04.01.07.02.11.03.16.05.32.14.48.26Z"/>
  <path class="st5" d="M3.87,10.43v3.91c-.92.68-.1,1.45-.1,1.45-.06,1.31-.67,3.13-.67,3.13.8.43,1.53.43,2.33,0,0,0-.61-1.82-.68-3.13,0,0,.82-.78-.1-1.45v-3.74s-.78-.17-.78-.17Z"/>
  <path class="st6" d="M18.33,12.1c-1.36.98-2.69,2.22-3.53,3.05-.56.54-.9.91-.9.91-2.82.1-4.93,1.08-6.14,1.81-.13.09-.25.17-.35.24-.11.07-.21.14-.3.21-.18.13-.32.24-.41.31-.05.04-.08.06-.1.08.33-.35,3.95-4.13,7.77-6.13,1.05-.55,2.04-.95,2.91-1.23,0,0,1.05.75,1.05.75Z"/>
</svg>